<?xml version="1.0" encoding="UTF-8"?>
<svg id="Logo" xmlns="http://www.w3.org/2000/svg" viewBox="0 0 4096 4096">
  <defs>
    <style>
      .cls-1 {
        fill: #fff;
      }
    </style>
  </defs>
  <polygon class="cls-1" points="3683.86533 2500.85212 2505.33408 2500.85212 2100.3978 2018.26838 2081.0206 1995.17548 2188.55209 1933.09199 2773.89194 1595.14533 3285.81772 1595.14533 3683.86533 1365.33198 3171.93954 1365.33198 2712.31357 1365.33198 1728.92612 1933.09199 1338.54489 1933.09199 1814.95273 1365.33198 1364.95248 1365.33198 219.30045 2730.66535 669.30057 2730.66535 1242.12668 2047.9986 1145.70834 2162.90534 1790.50449 2162.90534 1881.48996 2162.90534 1921.76266 2162.90534 2398.1705 2730.66535 2698.1705 2730.66535 3876.69955 2730.66267 3683.86533 2500.85212"/>
  <circle class="cls-1" cx="432.65952" cy="1575.33198" r="210"/>
  <polygon class="cls-1" points="1568.18051 2277.81208 1948.17001 2730.66535 2248.1705 2730.66535 1868.18076 2277.81208 1568.18051 2277.81208"/>
</svg>