{
  "accessors": [
    {
      "bufferView": 2,
      "componentType": 5126,
      "count": 1527,
      "max": [
        20.973793029785156,
        18.55448341369629,
        5.988525867462158
      ],
      "min": [
        -20.973793029785156,
        -18.55448341369629,
        -0.5169179439544678
      ],
      "type": "VEC3"
    },
    {
      "bufferView": 2,
      "byteOffset": 18324,
      "componentType": 5126,
      "count": 1527,
      "max": [
        1.0,
        1.0,
        1.0
      ],
      "min": [
        -1.0,
        -1.0,
        -1.0
      ],
      "type": "VEC3"
    },
    {
      "bufferView": 3,
      "componentType": 5126,
      "count": 1527,
      "max": [
        1.0,
        1.0,
        1.0,
        1.0
      ],
      "min": [
        -1.0,
        -1.0,
        -1.0,
        -1.0
      ],
      "type": "VEC4"
    },
    {
      "bufferView": 1,
      "componentType": 5126,
      "count": 1527,
      "max": [
        0.9689128398895264,
        0.9877766370773315
      ],
      "min": [
        0.012835000641644001,
        0.01224561408162117
      ],
      "type": "VEC2"
    },
    {
      "bufferView": 1,
      "byteOffset": 12216,
      "componentType": 5126,
      "count": 1527,
      "max": [
        0.9689128398895264,
        0.9877766370773315
      ],
      "min": [
        0.012835000641644001,
        0.01224561408162117
      ],
      "type": "VEC2"
    },
    {
      "bufferView": 1,
      "byteOffset": 24432,
      "componentType": 5126,
      "count": 1527,
      "max": [
        0.9689128398895264,
        0.9877766370773315
      ],
      "min": [
        0.012835000641644001,
        0.01224561408162117
      ],
      "type": "VEC2"
    },
    {
      "bufferView": 1,
      "byteOffset": 36648,
      "componentType": 5126,
      "count": 1527,
      "max": [
        0.9689128398895264,
        0.9877766370773315
      ],
      "min": [
        0.012835000641644001,
        0.01224561408162117
      ],
      "type": "VEC2"
    },
    {
      "bufferView": 0,
      "componentType": 5125,
      "count": 4770,
      "type": "SCALAR"
    },
    {
      "bufferView": 2,
      "byteOffset": 36648,
      "componentType": 5126,
      "count": 559,
      "max": [
        0.9999997019767761,
        1.0,
        1.0
      ],
      "min": [
        -0.9999990463256836,
        -0.9999993443489075,
        -1.0
      ],
      "type": "VEC3"
    },
    {
      "bufferView": 2,
      "byteOffset": 43356,
      "componentType": 5126,
      "count": 559,
      "max": [
        1.0,
        1.0,
        1.0
      ],
      "min": [
        -1.0,
        -1.0,
        -1.0
      ],
      "type": "VEC3"
    },
    {
      "bufferView": 1,
      "byteOffset": 48864,
      "componentType": 5126,
      "count": 559,
      "max": [
        1.0,
        1.0
      ],
      "min": [
        0.0,
        0.0
      ],
      "type": "VEC2"
    },
    {
      "bufferView": 0,
      "byteOffset": 19080,
      "componentType": 5125,
      "count": 2880,
      "type": "SCALAR"
    }
  ],
  "asset": {
    "extras": {
      "author": "Janis Zeps (https://sketchfab.com/Zeps3D)",
      "license": "CC-BY-4.0 (http://creativecommons.org/licenses/by/4.0/)",
      "source": "https://sketchfab.com/3d-models/dark-vr-room-2ce7bdc63e3b464498d2dd2aaab6dcc1",
      "title": "Dark VR Room"
    },
    "generator": "Sketchfab-16.12.0",
    "version": "2.0"
  },
  "bufferViews": [
    {
      "buffer": 0,
      "byteLength": 30600,
      "name": "floatBufferViews",
      "target": 34963
    },
    {
      "buffer": 0,
      "byteLength": 53336,
      "byteOffset": 30600,
      "byteStride": 8,
      "name": "floatBufferViews",
      "target": 34962
    },
    {
      "buffer": 0,
      "byteLength": 50064,
      "byteOffset": 83936,
      "byteStride": 12,
      "name": "floatBufferViews",
      "target": 34962
    },
    {
      "buffer": 0,
      "byteLength": 24432,
      "byteOffset": 134000,
      "byteStride": 16,
      "name": "floatBufferViews",
      "target": 34962
    }
  ],
  "buffers": [
    {
      "byteLength": 158432,
      "uri": "scene.bin"
    }
  ],
  "extensionsUsed": [
    "KHR_materials_specular"
  ],
  "images": [
    {
      "uri": "textures/walls_baseColor.png"
    },
    {
      "uri": "textures/walls_metallicRoughness.png"
    },
    {
      "uri": "textures/walls_normal.png"
    },
    {
      "uri": "textures/walls_specularf0.png"
    }
  ],
  "materials": [
    {
      "emissiveFactor": [
        0.7,
        0.7,
        0.7
      ],
      "emissiveTexture": {
        "index": 0
      },
      "extensions": {
        "KHR_materials_specular": {
          "specularColorFactor": [
            1.0,
            1.0,
            1.0
          ],
          "specularFactor": 1.0,
          "specularTexture": {
            "index": 3
          }
        }
      },
      "name": "walls",
      "normalTexture": {
        "index": 2
      },
      "pbrMetallicRoughness": {
        "baseColorTexture": {
          "index": 0
        },
        "metallicFactor": 0.0,
        "metallicRoughnessTexture": {
          "index": 1
        }
      }
    },
    {
      "extensions": {
        "KHR_materials_specular": {
          "specularColorFactor": [
            1.0,
            1.0,
            1.0
          ],
          "specularFactor": 0.0
        }
      },
      "name": "sphere",
      "pbrMetallicRoughness": {
        "roughnessFactor": 0.0
      }
    }
  ],
  "meshes": [
    {
      "name": "walls_walls_0",
      "primitives": [
        {
          "attributes": {
            "NORMAL": 1,
            "POSITION": 0,
            "TANGENT": 2,
            "TEXCOORD_0": 3,
            "TEXCOORD_1": 4,
            "TEXCOORD_2": 5,
            "TEXCOORD_3": 6
          },
          "indices": 7,
          "material": 0,
          "mode": 4
        }
      ]
    },
    {
      "name": "Sphere_sphere_0",
      "primitives": [
        {
          "attributes": {
            "NORMAL": 9,
            "POSITION": 8,
            "TEXCOORD_0": 10
          },
          "indices": 11,
          "material": 1,
          "mode": 4
        }
      ]
    }
  ],
  "nodes": [
    {
      "children": [
        1
      ],
      "matrix": [
        1.0,
        0.0,
        0.0,
        0.0,
        0.0,
        2.220446049250313e-16,
        -1.0,
        0.0,
        0.0,
        1.0,
        2.220446049250313e-16,
        0.0,
        0.0,
        0.0,
        0.0,
        1.0
      ],
      "name": "Sketchfab_model"
    },
    {
      "children": [
        2
      ],
      "matrix": [
        0.009999999776482582,
        0.0,
        0.0,
        0.0,
        0.0,
        0.0,
        0.009999999776482582,
        0.0,
        0.0,
        -0.009999999776482582,
        0.0,
        0.0,
        0.0,
        0.0,
        0.0,
        1.0
      ],
      "name": "7c48c6dbdd214b95a6e5716e1f18355d.fbx"
    },
    {
      "children": [
        3,
        5
      ],
      "name": "RootNode"
    },
    {
      "children": [
        4
      ],
      "matrix": [
        100.0,
        0.0,
        0.0,
        0.0,
        0.0,
        -1.629206793918314e-05,
        -99.99999999999868,
        0.0,
        0.0,
        99.99999999999868,
        -1.629206793918314e-05,
        0.0,
        6737.361328125,
        1.0014533996582031,
        4112.091796875,
        1.0
      ],
      "name": "walls"
    },
    {
      "mesh": 0,
      "name": "walls_walls_0"
    },
    {
      "children": [
        6
      ],
      "matrix": [
        102.8821792602539,
        0.0,
        0.0,
        0.0,
        0.0,
        -1.6761634542392756e-05,
        -102.88217926025254,
        0.0,
        0.0,
        102.88217926025254,
        -1.6761634542392756e-05,
        0.0,
        6737.361328125,
        235.55654907226563,
        4112.091796875,
        1.0
      ],
      "name": "Sphere"
    },
    {
      "mesh": 1,
      "name": "Sphere_sphere_0"
    }
  ],
  "samplers": [
    {
      "magFilter": 9729,
      "minFilter": 9987,
      "wrapS": 10497,
      "wrapT": 10497
    }
  ],
  "scene": 0,
  "scenes": [
    {
      "name": "Sketchfab_Scene",
      "nodes": [
        0
      ]
    }
  ],
  "textures": [
    {
      "sampler": 0,
      "source": 0
    },
    {
      "sampler": 0,
      "source": 1
    },
    {
      "sampler": 0,
      "source": 2
    },
    {
      "sampler": 0,
      "source": 3
    }
  ]
}
