<?xml version="1.0" encoding="UTF-8"?><svg id="Logo" xmlns="http://www.w3.org/2000/svg" viewBox="0 0 4096 4096"><polygon points="3683.87 2500.85 2505.33 2500.85 2100.4 2018.27 2081.02 1995.18 2188.55 1933.09 2773.89 1595.15 3285.82 1595.15 3683.87 1365.33 3171.94 1365.33 2712.31 1365.33 1728.93 1933.09 1338.54 1933.09 1814.95 1365.33 1364.95 1365.33 219.3 2730.67 669.3 2730.67 1242.13 2048 1145.71 2162.91 1790.5 2162.91 1881.49 2162.91 1921.76 2162.91 2398.17 2730.67 2698.17 2730.67 3876.7 2730.66 3683.87 2500.85" fill="#fff"/><circle cx="432.66" cy="1575.33" r="210" fill="#fff"/><polygon points="1568.18 2277.81 1948.17 2730.67 2248.17 2730.67 1868.18 2277.81 1568.18 2277.81" fill="#fff"/></svg>